<?xml version="1.0" standalone="no"?>
<!DOCTYPE svg PUBLIC "-//W3C//DTD SVG 20010904//EN"
 "http://www.w3.org/TR/2001/REC-SVG-20010904/DTD/svg10.dtd">
<svg version="1.0" xmlns="http://www.w3.org/2000/svg"
 width="1500.000000pt" height="1500.000000pt" viewBox="0 0 1500.000000 1500.000000"
 preserveAspectRatio="xMidYMid meet">
<metadata>
Created by potrace 1.16, written by Peter Selinger 2001-2019
</metadata>
<text x="750" y="1140" text-anchor="middle" font-family="Lato, sans-serif" font-weight="400" font-size="30" letter-spacing="7" fill="#1E3563">CLÍNICA DE ESTÉTICA E OZONIOTERAPIA</text>
<g transform="translate(0.000000,1500.000000) scale(0.100000,-0.100000)"
fill="#1E3563" stroke="none">
<path d="M7910 11811 c-69 -4 -133 -10 -143 -15 -46 -22 -50 -90 -6 -132 l30
-29 1231 -5 1231 -5 20 -27 c11 -15 20 -42 20 -60 0 -18 -1 -1177 -2 -2576 -1
-2735 -4 -2594 47 -2621 29 -16 64 -14 91 5 54 39 51 -132 51 2750 0 1466 -3
2670 -6 2676 -4 5 -23 17 -43 26 -32 15 -154 16 -1216 18 -649 0 -1236 -2
-1305 -5z M4633 11640 c-56 -23 -52 176 -54 -2688 l-1 -2632 26 -35 c15 -19
30 -35 34 -35 4 0 553 -1 1220 -1 1173 -2 1213 -1 1233 17 57 52 56 108 -3
144 -33 20 -47 20 -1151 19 -1209 0 -1148 -3 -1176 50 -7 13 -10 858 -10 2558
1 1907 -1 2545 -10 2561 -11 20 -60 53 -78 51 -4 0 -18 -4 -30 -9z M6283
11638 c-50 -24 -51 -42 -50 -488 l1 -415 42 -90 c61 -131 96 -153 131 -84 15
28 18 924 4 999 -15 73 -69 106 -128 78z M5527 10925 c-169 -34 -272 -121
-361 -303 -69 -142 -81 -210 -79 -424 2 -186 13 -248 88 -484 36 -112 65 -210
65 -217 0 -17 190 -388 214 -417 7 -8 28 -42 46 -75 19 -33 44 -73 56 -90 12
-16 33 -52 47 -80 15 -27 40 -66 58 -85 17 -19 38 -51 46 -70 8 -19 30 -51 48
-70 18 -19 43 -51 56 -71 33 -51 97 -130 179 -224 38 -44 106 -125 149 -180
195 -246 260 -265 261 -75 0 42 14 181 31 310 77 581 79 1062 9 1451 -17 95
-37 212 -45 260 -9 62 -20 97 -39 125 -15 22 -35 69 -46 106 -12 37 -42 100
-69 140 -26 40 -60 94 -74 119 -54 95 -152 196 -288 296 -28 20 -224 74 -265
72 -10 0 -50 -7 -87 -14z M7835 10672 c-130 -49 -309 -171 -380 -259 -21 -26
-61 -73 -89 -104 -80 -88 -126 -149 -158 -214 -17 -33 -39 -72 -50 -88 -11
-15 -37 -69 -58 -120 -21 -50 -54 -131 -74 -179 -20 -47 -45 -121 -56 -164
-11 -44 -32 -101 -46 -127 -16 -32 -28 -77 -34 -130 -5 -45 -26 -138 -45 -207
-34 -120 -65 -307 -65 -391 0 -22 -7 -77 -15 -122 -8 -45 -19 -122 -25 -172
-5 -49 -15 -128 -20 -175 -35 -289 -34 -277 -16 -304 33 -51 74 -37 211 74 39
31 90 70 115 87 25 17 81 64 125 104 44 41 135 118 202 172 262 209 639 622
802 877 26 41 61 95 77 119 56 84 73 115 79 150 4 20 19 59 34 86 37 67 46 95
87 273 41 181 52 286 35 333 -7 19 -18 66 -26 105 -29 153 -124 276 -269 349
-76 38 -84 40 -185 43 -83 2 -117 -2 -156 -16z M8969 8810 c-87 -10 -170 -25
-185 -33 -16 -8 -83 -31 -149 -51 -66 -20 -156 -54 -200 -76 -44 -21 -114 -55
-155 -74 -41 -20 -118 -61 -170 -90 -52 -30 -113 -64 -134 -76 -22 -13 -67
-43 -101 -69 -34 -25 -107 -77 -161 -114 -113 -77 -174 -124 -224 -171 -19
-18 -57 -50 -84 -70 -91 -69 -141 -110 -206 -171 -36 -33 -87 -79 -115 -100
-65 -52 -74 -64 -75 -98 0 -44 37 -73 106 -82 32 -4 68 -12 78 -17 10 -6 68
-14 128 -19 61 -5 198 -22 307 -38 108 -16 273 -35 366 -41 170 -11 484 -8
505 5 6 4 63 10 128 15 276 20 789 194 981 333 67 49 237 226 265 277 37 69
79 243 74 315 -8 135 -133 307 -272 375 -28 14 -64 34 -80 45 -57 38 -402 52
-627 25z M8600 7283 l-30 -28 -1 -405 c-2 -496 -4 -452 27 -489 29 -35 66 -40
103 -15 48 34 50 55 46 430 -4 296 -2 356 11 397 20 61 12 92 -29 117 -46 28
-90 26 -127 -7z M8442 5196 c-35 -7 -75 -23 -90 -35 -15 -12 -50 -37 -78 -56
-58 -39 -137 -123 -163 -175 -10 -19 -28 -76 -40 -125 -22 -88 -22 -94 -6
-190 29 -186 63 -246 199 -360 64 -53 87 -66 134 -75 31 -7 83 -21 115 -31
l58 -19 127 31 c144 35 147 37 220 93 62 48 168 197 188 264 30 97 6 360 -36
412 -11 14 -35 45 -53 69 -62 85 -76 97 -174 151 l-98 55 -120 2 c-67 1 -148
-4 -183 -11z m247 -115 c24 -5 55 -18 70 -29 14 -12 49 -34 76 -51 40 -23 60
-45 100 -112 50 -83 50 -83 53 -182 5 -134 0 -151 -67 -243 -111 -151 -154
-175 -321 -178 -73 -1 -111 4 -166 21 -70 22 -74 26 -140 108 -85 105 -96 134
-98 260 -1 124 22 189 95 270 107 117 248 165 398 136z M11433 5195 c-55 -23
-55 -22 -55 -484 0 -234 1 -438 1 -453 1 -43 42 -83 75 -74 42 10 57 58 54
171 -4 133 2 138 154 139 143 0 176 -14 233 -98 22 -32 60 -88 85 -125 49 -72
102 -108 145 -97 61 15 36 102 -58 203 -89 94 -92 166 -11 206 37 18 52 34 78
80 17 33 39 73 49 90 47 82 -9 232 -135 363 -46 48 -69 65 -106 74 -69 18
-468 22 -509 5z m442 -127 c69 -15 88 -30 126 -99 19 -33 42 -74 52 -92 22
-40 16 -79 -20 -121 -16 -18 -42 -53 -59 -78 -30 -43 -34 -45 -95 -52 -122
-14 -304 -22 -326 -15 -37 14 -42 39 -44 238 -1 189 -1 193 22 218 l24 25 135
-7 c74 -3 158 -11 185 -17z M4183 5174 c-25 -25 -25 -29 -19 -101 3 -42 6
-106 6 -143 0 -79 19 -112 64 -112 50 0 58 18 68 168 5 76 7 148 4 160 -15 58
-79 72 -123 28z M5246 5167 c-13 -13 -33 -50 -45 -83 -12 -32 -38 -81 -56
-109 -19 -27 -46 -79 -61 -115 -14 -36 -30 -70 -35 -76 -5 -7 -22 -49 -38 -95
-15 -46 -48 -124 -73 -174 -25 -49 -48 -102 -52 -116 -3 -14 -21 -45 -41 -70
-67 -84 -38 -177 44 -143 58 24 89 61 101 121 22 102 77 136 188 114 39 -7
103 -8 206 -1 172 10 192 5 221 -57 29 -65 109 -182 131 -194 28 -15 61 3 70
36 11 42 -4 88 -51 160 -25 37 -52 91 -60 118 -8 28 -30 73 -49 101 -19 28
-39 75 -45 104 -6 30 -24 72 -40 95 -15 23 -36 67 -45 97 -10 30 -33 78 -51
105 -19 28 -43 76 -55 109 -29 76 -49 96 -100 96 -29 0 -47 -7 -64 -23z m124
-237 c6 -10 13 -41 16 -67 9 -82 13 -91 59 -137 38 -37 45 -50 45 -82 0 -86
-35 -113 -115 -94 -51 12 -65 12 -124 -3 -86 -22 -88 -22 -106 13 -25 49 -19
99 20 156 20 28 42 78 51 115 9 35 21 71 27 80 31 42 109 54 127 19z M6403
5163 c-15 -22 -17 -44 -15 -118 5 -116 5 -145 -3 -489 -5 -201 -4 -300 4 -326
19 -63 82 -74 112 -19 13 24 16 386 4 505 -9 93 1 124 41 124 20 0 29 -9 46
-47 12 -27 36 -69 53 -95 18 -26 38 -70 45 -98 9 -37 24 -64 57 -98 24 -26 55
-70 68 -98 27 -61 56 -84 107 -84 41 0 70 32 84 93 3 15 23 45 45 66 24 23 48
61 63 99 13 34 33 74 44 89 11 16 30 56 42 90 27 76 41 90 75 75 32 -15 39
-59 26 -164 -13 -110 -3 -403 15 -440 20 -38 50 -45 80 -17 42 39 44 65 35
387 -6 187 -6 329 0 369 10 74 -1 161 -26 200 -20 30 -65 31 -91 1 -26 -29
-97 -152 -114 -198 -7 -19 -32 -55 -55 -80 -24 -25 -49 -66 -58 -93 -9 -26
-32 -66 -51 -88 -22 -27 -39 -59 -46 -92 -13 -64 -24 -77 -65 -77 -47 0 -88
38 -113 105 -12 31 -35 72 -52 93 -16 21 -37 59 -46 85 -9 26 -31 61 -51 80
-20 18 -54 71 -78 122 -71 148 -141 201 -182 138z M3003 5148 c-16 -30 -18
-70 -20 -463 -2 -279 1 -442 8 -463 20 -62 30 -64 321 -67 145 -1 273 1 285 6
29 11 55 52 47 73 -16 43 -58 51 -270 52 -111 1 -211 5 -222 8 -27 9 -55 70
-46 99 4 12 7 182 6 377 -1 330 -3 356 -20 380 -29 39 -67 38 -89 -2z M9808
5133 c-21 -47 -21 -56 -15 -366 l7 -319 41 -75 c56 -102 89 -137 162 -173 76
-37 205 -64 261 -56 112 18 178 48 249 115 126 119 139 174 135 568 -3 268 -4
283 -24 310 -31 42 -73 39 -97 -7 -15 -31 -17 -63 -17 -265 2 -258 -7 -398
-26 -435 -16 -33 -106 -118 -137 -129 -48 -18 -248 -11 -289 10 -31 16 -119
161 -128 211 -5 26 -9 166 -8 312 0 245 -1 268 -19 303 -31 60 -67 58 -95 -4z"/>
</g>
</svg>
