<?xml version="1.0" standalone="no"?>
<!DOCTYPE svg PUBLIC "-//W3C//DTD SVG 20010904//EN"
 "http://www.w3.org/TR/2001/REC-SVG-20010904/DTD/svg10.dtd">
<svg version="1.0" xmlns="http://www.w3.org/2000/svg"
 width="671pt" height="637pt" viewBox="417 278 671 637"
 preserveAspectRatio="xMidYMid meet">
<metadata>
Created by potrace 1.16, written by Peter Selinger 2001-2019
</metadata>
<g transform="translate(0.000000,1500.000000) scale(0.100000,-0.100000)"
fill="#1E3563" stroke="none">
<path d="M7910 11811 c-69 -4 -133 -10 -143 -15 -46 -22 -50 -90 -6 -132 l30
-29 1231 -5 1231 -5 20 -27 c11 -15 20 -42 20 -60 0 -18 -1 -1177 -2 -2576 -1
-2735 -4 -2594 47 -2621 29 -16 64 -14 91 5 54 39 51 -132 51 2750 0 1466 -3
2670 -6 2676 -4 5 -23 17 -43 26 -32 15 -154 16 -1216 18 -649 0 -1236 -2
-1305 -5z M4633 11640 c-56 -23 -52 176 -54 -2688 l-1 -2632 26 -35 c15 -19
30 -35 34 -35 4 0 553 -1 1220 -1 1173 -2 1213 -1 1233 17 57 52 56 108 -3
144 -33 20 -47 20 -1151 19 -1209 0 -1148 -3 -1176 50 -7 13 -10 858 -10 2558
1 1907 -1 2545 -10 2561 -11 20 -60 53 -78 51 -4 0 -18 -4 -30 -9z M6283
11638 c-50 -24 -51 -42 -50 -488 l1 -415 42 -90 c61 -131 96 -153 131 -84 15
28 18 924 4 999 -15 73 -69 106 -128 78z M5527 10925 c-169 -34 -272 -121
-361 -303 -69 -142 -81 -210 -79 -424 2 -186 13 -248 88 -484 36 -112 65 -210
65 -217 0 -17 190 -388 214 -417 7 -8 28 -42 46 -75 19 -33 44 -73 56 -90 12
-16 33 -52 47 -80 15 -27 40 -66 58 -85 17 -19 38 -51 46 -70 8 -19 30 -51 48
-70 18 -19 43 -51 56 -71 33 -51 97 -130 179 -224 38 -44 106 -125 149 -180
195 -246 260 -265 261 -75 0 42 14 181 31 310 77 581 79 1062 9 1451 -17 95
-37 212 -45 260 -9 62 -20 97 -39 125 -15 22 -35 69 -46 106 -12 37 -42 100
-69 140 -26 40 -60 94 -74 119 -54 95 -152 196 -288 296 -28 20 -224 74 -265
72 -10 0 -50 -7 -87 -14z M7835 10672 c-130 -49 -309 -171 -380 -259 -21 -26
-61 -73 -89 -104 -80 -88 -126 -149 -158 -214 -17 -33 -39 -72 -50 -88 -11
-15 -37 -69 -58 -120 -21 -50 -54 -131 -74 -179 -20 -47 -45 -121 -56 -164
-11 -44 -32 -101 -46 -127 -16 -32 -28 -77 -34 -130 -5 -45 -26 -138 -45 -207
-34 -120 -65 -307 -65 -391 0 -22 -7 -77 -15 -122 -8 -45 -19 -122 -25 -172
-5 -49 -15 -128 -20 -175 -35 -289 -34 -277 -16 -304 33 -51 74 -37 211 74 39
31 90 70 115 87 25 17 81 64 125 104 44 41 135 118 202 172 262 209 639 622
802 877 26 41 61 95 77 119 56 84 73 115 79 150 4 20 19 59 34 86 37 67 46 95
87 273 41 181 52 286 35 333 -7 19 -18 66 -26 105 -29 153 -124 276 -269 349
-76 38 -84 40 -185 43 -83 2 -117 -2 -156 -16z M8969 8810 c-87 -10 -170 -25
-185 -33 -16 -8 -83 -31 -149 -51 -66 -20 -156 -54 -200 -76 -44 -21 -114 -55
-155 -74 -41 -20 -118 -61 -170 -90 -52 -30 -113 -64 -134 -76 -22 -13 -67
-43 -101 -69 -34 -25 -107 -77 -161 -114 -113 -77 -174 -124 -224 -171 -19
-18 -57 -50 -84 -70 -91 -69 -141 -110 -206 -171 -36 -33 -87 -79 -115 -100
-65 -52 -74 -64 -75 -98 0 -44 37 -73 106 -82 32 -4 68 -12 78 -17 10 -6 68
-14 128 -19 61 -5 198 -22 307 -38 108 -16 273 -35 366 -41 170 -11 484 -8
505 5 6 4 63 10 128 15 276 20 789 194 981 333 67 49 237 226 265 277 37 69
79 243 74 315 -8 135 -133 307 -272 375 -28 14 -64 34 -80 45 -57 38 -402 52
-627 25z M8600 7283 l-30 -28 -1 -405 c-2 -496 -4 -452 27 -489 29 -35 66 -40
103 -15 48 34 50 55 46 430 -4 296 -2 356 11 397 20 61 12 92 -29 117 -46 28
-90 26 -127 -7z"/>
</g>
</svg>
